<mxfile host="app.diagrams.net" modified="2024-05-20T05:27:27.006Z" agent="Mozilla/5.0 (Windows NT 10.0; Win64; x64) AppleWebKit/537.36 (KHTML, like Gecko) Chrome/121.0.0.0 Safari/537.36 Edg/121.0.0.0" version="24.4.3" etag="MwSigs8Pp_gGWq3765Vt" type="github">
  <diagram name="第 1 页" id="iM_-h4SWw3iJKaxTay43">
    <mxGraphModel>
      <root>
        <mxCell id="0" />
        <mxCell id="1" parent="0" />
      </root>
    </mxGraphModel>
  </diagram>
</mxfile>
